<?xml version="1.0" standalone="no"?>
<!DOCTYPE svg PUBLIC "-//W3C//DTD SVG 20010904//EN"
 "http://www.w3.org/TR/2001/REC-SVG-20010904/DTD/svg10.dtd">
<svg version="1.0" xmlns="http://www.w3.org/2000/svg"
 width="1024.000000pt" height="1024.000000pt" viewBox="0 0 1024.000000 1024.000000"
 preserveAspectRatio="xMidYMid meet">
<metadata>
Created by potrace 1.14, written by Peter Selinger 2001-2017
</metadata>
<g transform="translate(0.000000,1024.000000) scale(0.100000,-0.100000)"
fill="#000000" stroke="none">
<path d="M0 5120 l0 -5120 5120 0 5120 0 0 5120 0 5120 -5120 0 -5120 0 0
-5120z m6548 3329 c140 -15 363 -62 467 -99 102 -36 316 -136 390 -183 284
-180 565 -457 739 -730 62 -96 162 -305 200 -417 79 -232 111 -467 103 -750
-6 -197 -20 -295 -68 -478 -69 -263 -215 -539 -411 -780 -88 -107 -257 -276
-358 -356 -105 -83 -288 -196 -400 -248 -118 -55 -325 -123 -452 -149 l-107
-22 -4 -536 c-4 -571 -4 -565 -56 -707 -42 -112 -102 -202 -212 -319 l-38 -40
-3 -305 c-3 -262 -6 -312 -22 -352 -22 -59 -84 -130 -144 -166 l-47 -27 -235
0 c-267 0 -285 4 -368 86 -79 78 -87 107 -90 327 l-3 192 -1209 0 -1208 0 -4
-187 c-3 -182 -4 -190 -31 -245 -30 -62 -83 -115 -149 -150 -41 -22 -56 -23
-267 -26 l-224 -3 -63 31 c-75 37 -126 92 -154 167 -18 49 -20 78 -20 353 l0
300 -78 84 c-87 95 -130 162 -173 266 -63 155 -60 59 -56 1900 3 1573 4 1680
21 1750 55 231 172 411 349 539 139 99 252 148 512 222 405 114 943 167 1591
156 l321 -5 24 31 c189 260 500 504 854 672 251 120 413 168 695 209 58 8 298
5 388 -5z"/>
<path d="M6174 7840 c-325 -37 -571 -146 -819 -361 -142 -123 -287 -307 -367
-464 -46 -89 -105 -261 -130 -377 -18 -85 -22 -136 -22 -298 -1 -207 8 -280
51 -429 114 -397 409 -749 778 -930 233 -114 401 -153 665 -154 206 0 309 15
481 73 260 86 482 232 662 435 258 289 377 604 377 999 0 252 -41 439 -139
641 -96 197 -207 343 -375 493 -145 130 -347 249 -516 306 -168 56 -470 87
-646 66z m476 -1050 l0 -760 -310 0 -310 0 0 760 0 760 310 0 310 0 0 -760z
m0 -1365 l0 -305 -310 0 -310 0 0 305 0 305 310 0 310 0 0 -305z"/>
<path d="M2400 5575 l0 -755 1226 0 1225 0 -80 88 c-198 216 -328 422 -416
657 -88 237 -122 395 -134 635 l-6 125 -907 3 -908 2 0 -755z"/>
<path d="M2733 3895 c-80 -22 -131 -52 -195 -113 -205 -196 -175 -539 62 -704
117 -81 311 -96 446 -34 61 28 150 108 194 174 65 98 84 281 41 393 -46 122
-148 227 -258 269 -75 29 -216 36 -290 15z"/>
<path d="M5463 3895 c-128 -35 -237 -128 -296 -252 -30 -64 -32 -75 -32 -178
0 -132 17 -188 81 -275 103 -141 252 -202 438 -179 99 13 166 47 245 126 104
105 137 198 129 359 -4 80 -10 104 -38 161 -41 83 -125 169 -200 206 -97 47
-224 59 -327 32z"/>
</g>
</svg>
